<?xml version="1.0" encoding="UTF-8" standalone="no"?>
<!-- Generator: Adobe Illustrator 14.0.0, SVG Export Plug-In . SVG Version: 6.00 Build 43363)  -->

<svg
   xmlns:dc="http://purl.org/dc/elements/1.1/"
   xmlns:cc="http://creativecommons.org/ns#"
   xmlns:rdf="http://www.w3.org/1999/02/22-rdf-syntax-ns#"
   xmlns:svg="http://www.w3.org/2000/svg"
   xmlns="http://www.w3.org/2000/svg"
   xmlns:sodipodi="http://sodipodi.sourceforge.net/DTD/sodipodi-0.dtd"
   xmlns:inkscape="http://www.inkscape.org/namespaces/inkscape"
   id="Calque_1"
   enable-background="new 0 0 200 200"
   xml:space="preserve"
   viewBox="0 0 616.51025 657.27209"
   version="1.1"
   y="0px"
   x="0px"
   sodipodi:docname="brainstorm-text.svg"
   width="616.51025"
   height="657.27209"
   inkscape:version="0.92.1 r15371"><defs
   id="defs8721" /><sodipodi:namedview
   pagecolor="#ffffff"
   bordercolor="#666666"
   borderopacity="1"
   objecttolerance="10"
   gridtolerance="10"
   guidetolerance="10"
   inkscape:pageopacity="0"
   inkscape:pageshadow="2"
   inkscape:window-width="1366"
   inkscape:window-height="706"
   id="namedview8719"
   showgrid="false"
   fit-margin-top="0"
   fit-margin-left="0"
   fit-margin-right="0"
   fit-margin-bottom="0"
   inkscape:zoom="0.29556473"
   inkscape:cx="87.262953"
   inkscape:cy="558.79374"
   inkscape:window-x="-8"
   inkscape:window-y="-8"
   inkscape:window-maximized="1"
   inkscape:current-layer="Calque_1" />
<title
   id="title8705">imagebot_2</title>









<metadata
   id="metadata8716"><rdf:RDF><cc:Work><dc:format>image/svg+xml</dc:format><dc:type
         rdf:resource="http://purl.org/dc/dcmitype/StillImage" /><cc:license
         rdf:resource="http://creativecommons.org/publicdomain/zero/1.0/" /><dc:publisher><cc:Agent
           rdf:about="http://openclipart.org/"><dc:title>Openclipart</dc:title></cc:Agent></dc:publisher><dc:title>imagebot_2</dc:title></cc:Work><cc:License
       rdf:about="http://creativecommons.org/publicdomain/zero/1.0/"><cc:permits
         rdf:resource="http://creativecommons.org/ns#Reproduction" /><cc:permits
         rdf:resource="http://creativecommons.org/ns#Distribution" /><cc:permits
         rdf:resource="http://creativecommons.org/ns#DerivativeWorks" /></cc:License></rdf:RDF></metadata><g
   id="g9282"
   transform="translate(-6.3145193,-1.5216326)"><path
     style="fill:#ded4e7;fill-opacity:1;stroke:#333333;stroke-width:16.53273582"
     inkscape:connector-curvature="0"
     d="m 161.96053,646.6716 c 20.34876,-40.11454 15.06793,-149.39184 12.30772,-194.73972 0,0 -26.62077,-22.73224 -34.87515,-33.75857 C 124.08558,397.69964 106.13929,369.20106 98.455991,345.37286 89.692896,318.18012 85.5214,279.28148 87.861508,250.81621 c 2.189132,-26.56647 9.754276,-63.05664 24.251122,-85.55236 15.7867,-24.48779 48.31846,-49.44861 74.27954,-63.02666 26.23021,-13.727948 65.90701,-23.268558 95.49804,-25.527124 28.72129,-2.168624 67.5907,3.357868 95.50132,10.519988 31.96068,8.201461 74.58477,24.277926 100.03385,45.021426 61.43356,53.13293 60.77715,122.42895 65.17839,196.63184 4.38483,17.62215 19.48558,37.88928 30.31308,52.53665 4.77212,6.42592 14.61501,12.36216 18.19245,19.49763 2.27775,4.5138 4.98545,11.85914 3.02606,16.52617 -2.73067,6.5625 -13.41049,10.00698 -19.68578,13.48811 -3.89909,2.16529 -11.46752,2.13864 -13.65337,6.00285 -5.15939,9.12421 8.54977,23.8915 2.28103,32.27285 -3.30503,4.39055 -15.91141,5.25666 -15.91141,5.25666 0,0 15.60618,19.58424 9.09458,19.51761 -3.62996,-0.06 -14.68393,18.15848 -12.12392,24.01143 0,0 7.44042,17.53886 7.56186,25.49715 0.12144,8.85104 -1.41129,22.1093 -7.56186,28.52189 -6.27201,6.50587 -20.07963,6.65244 -28.81319,9.00429 -13.95531,3.74095 -36.46366,1.54235 -51.52831,5.25999 -9.99387,2.4651 -23.14179,7.30536 -31.84581,12.74524 -6.26873,3.92418 -15.15326,9.83709 -18.18588,16.52285 -9.54423,20.92005 -1.76903,12.08233 -4.53252,34.90451 l -248.70779,-2.64166"
     id="imagebot_5" /><path
     style="fill:#d45500;stroke:#725436;stroke-width:9.91964054;stroke-opacity:1"
     inkscape:connector-curvature="0"
     d="m 274.68938,435.10589 c 0,0 -10.87674,8.49461 -16.40045,10.05695 -4.96247,1.40245 -12.37992,1.92212 -17.16844,0 -3.9877,-1.6223 -10.4271,-10.05695 -10.4271,-10.05695 -42.99168,10.96971 -63.82618,-26.77966 -66.42557,-49.39531 0,0 -15.03839,-3.91751 -21.62876,-4.6204 -18.67163,-2.0487 -28.24868,-51.14087 -28.36355,-54.04569 -3.51837,-86.59503 8.06402,-129.32457 64.91254,-186.02525 24.73359,-24.69765 61.99151,-37.47621 117.89809,-39.36834 35.2493,-1.19591 64.76485,0.4264 88.78951,13.11168 0,0 49.22431,21.27649 67.16076,35.51745 17.22424,13.66133 35.84335,36.03713 48.51866,55.57139 17.1389,38.66546 10.3713,97.59805 -29.87986,104.20052 l -46.97281,7.73176 c -13.35798,2.3585 17.75593,28.18211 -18.67491,50.95432 -30.19822,31.48335 -65.7429,3.29791 -68.63768,6.17608 0,0 -12.94115,18.89134 -17.16516,27.7857 -4.07632,8.61786 -8.15263,20.81345 -10.4632,30.10755 -1.7756,7.24874 2.56985,20.96669 -3.72186,24.69433 -15.24844,9.01761 -31.35021,3.05806 -31.35021,-0.76285 v -21.5863 z"
     id="imagebot_4" /><line
     style="fill:#ccc034;fill-opacity:1;stroke:#5b307c;stroke-width:29.75892258;stroke-linecap:round;stroke-opacity:1"
     x1="506.42236"
     y1="108.72974"
     x2="526.67267"
     y2="83.135986"
     id="imagebot_8" /><line
     style="fill:#ccc034;fill-opacity:1;stroke:#5b307c;stroke-width:29.75892258;stroke-linecap:round;stroke-opacity:1"
     x1="380.88364"
     y1="51.7659"
     x2="389.64673"
     y2="20.169291"
     id="imagebot_9" /><line
     style="fill:#ccc034;fill-opacity:1;stroke:#5b307c;stroke-width:29.75892258;stroke-linecap:round;stroke-opacity:1"
     x1="231.20868"
     y1="48.664536"
     x2="224.24414"
     y2="16.608217"
     id="imagebot_10" /><line
     style="fill:#ccc034;fill-opacity:1;stroke:#5b307c;stroke-width:29.75892258;stroke-linecap:round;stroke-opacity:1"
     x1="68.602386"
     y1="375.87683"
     x2="38.948997"
     y2="388.96851"
     id="imagebot_11" /><line
     style="fill:#ccc034;fill-opacity:1;stroke:#5b307c;stroke-width:29.75892258;stroke-linecap:round;stroke-opacity:1"
     x1="116.54012"
     y1="108.62315"
     x2="96.040398"
     y2="83.235924"
     id="imagebot_12" /><line
     style="fill:#ccc034;fill-opacity:1;stroke:#5b307c;stroke-width:29.75892258;stroke-linecap:round;stroke-opacity:1"
     x1="53.330975"
     y1="221.80795"
     x2="21.403116"
     y2="216.56129"
     id="imagebot_13" /><line
     style="fill:#ccc034;fill-opacity:1;stroke:#5b307c;stroke-width:29.75892258;stroke-linecap:round;stroke-opacity:1"
     x1="576.3302"
     y1="219.70929"
     x2="607.73944"
     y2="211.99751"
     id="imagebot_14" /><path
     sodipodi:nodetypes="cccccccccccccccccccccccccccccccccccccccccccccccccccccccccccccsccccccccccsccccccccccccccccccccccccccccccccccccccccccccccccccccccccccccccccccccccccccccccccccccccccccccccccccccccccccccccccccccccccccccccccccccccccccccccccccccccccccccccccccccccccccccccccccccccccccccccccccccccccccccccccccccccccccccccccccccccccccccccccccccccccccccccccccccccccccccccccccccccccccccccccccccccccccccccccccccccccccccccccccccccccccccccccccccc"
     d="m 441.32743,264.33308 c -1.67823,0.13595 -3.19782,0.53865 -4.21284,1.19289 -1.39025,0.89135 -1.97216,1.72986 -2.1017,3.29444 -0.15518,0.24769 -0.29336,0.49387 -0.39828,0.73473 -0.94749,2.06722 -1.08047,3.57089 -0.92417,6.4731 0.21234,4.30118 1.26852,10.32639 2.72155,12.45564 3.55829,3.40716 8.30664,6.87285 13.65167,7.70709 2.19888,0.36226 3.38281,0.253 6.67087,-0.56037 3.48916,-0.86044 4.37388,-1.25232 6.72129,-3.06871 3.20633,-2.42539 5.44013,-6.21567 5.21702,-8.66059 -0.17488,-2.99022 -1.39814,-4.75136 -4.6028,-7.81705 -4.71009,-4.55857 -12.5655,-10.11777 -17.58064,-11.34745 -1.64816,-0.41216 -3.48385,-0.53978 -5.16196,-0.40381 z m 35.28656,-94.30347 c -17.88033,2.36163 -17.40535,7.93535 -24.47331,15.60995 -2.84719,3.69614 -1.41242,7.70016 -2.2799,11.53757 -0.77647,12.62265 -1.39932,25.3132 -5.40641,37.92437 -0.68382,3.62896 -2.81059,7.12127 -4.33478,10.66747 1.5279,3.05211 0.49306,6.46288 1.5983,9.60407 1.04028,4.07414 9.75191,1.80302 7.23603,-1.88506 0.44315,-3.21332 -0.20668,-6.63956 2.11912,-9.70379 12.03784,-11.83451 28.02857,-21.99748 41.77851,-33.11234 9.51261,-7.35046 17.94101,-16.3504 16.43314,-25.56026 -0.45891,-5.42305 -5.94911,-9.97341 -13.58844,-12.2722 -5.24467,-1.73757 -11.37877,-3.15771 -17.97286,-2.90684 -0.36859,0.0305 -0.7398,0.0605 -1.1094,0.0972 z M 226.08751,301.49443 c -1.2397,0.62837 -1.69709,1.72697 -2.82777,5.83641 -0.7664,2.70981 -0.93667,5.20832 -1.99329,12.87259 -0.70628,5.21569 -1.74437,10.10501 -1.85721,10.79243 -0.16041,0.68486 -0.13602,1.38113 0.0698,1.53213 0.24278,0.19948 0.32386,0.66876 0.2104,1.12714 -0.30629,1.23765 0.9556,5.8207 1.92402,7.07461 0.4538,0.55372 1.91212,1.51596 3.19493,2.0388 2.7026,1.10335 4.48124,0.85036 6.7631,-1.0325 2.05172,-1.75254 1.42781,-4.15223 -1.23563,-5.01523 -1.65625,-0.52096 -2.58223,-3.80104 -2.23117,-7.49642 0.57284,-6.69176 2.13994,-18.1709 3.32529,-22.6645 1.0308,-4.02975 -2.01952,-6.84707 -5.34266,-5.06544 v 0 m 28.38276,-16.59995 c -1.00243,0.47377 -2.11739,1.19637 -2.47699,1.61371 -0.35956,0.41733 -1.51537,1.2346 -2.55893,1.84318 -2.67195,1.55028 -6.72871,6.29152 -7.98393,9.32998 -1.33988,3.18435 -2.21264,8.70621 -2.05376,12.62456 0.43596,9.01606 6.54487,16.94415 17.75137,21.12724 6.47346,2.44781 13.8076,0.93725 18.5901,-4.01559 1.68812,-1.77198 3.90043,-6.74507 4.5412,-10.19302 0.24043,-1.2866 0.31459,-4.96659 0.10142,-8.17064 -0.57734,-9.1562 -3.25936,-15.33041 -8.79751,-20.67068 -2.00407,-1.9703 -4.83403,-3.80139 -6.70169,-4.39668 -2.00077,-0.63423 -8.2343,-0.0536 -10.41129,0.90781 v 4e-5 m 11.62364,8.70595 c 2.46386,1.33928 5.42175,6.24387 6.27377,10.44238 1.33611,6.69877 -0.27522,14.02728 -3.84165,17.2256 -2.87178,2.57921 -7.84681,2.30701 -12.95525,-0.56885 -3.01791,-1.75534 -2.96972,-1.709 -5.12695,-3.73714 -2.37348,-2.22122 -3.37068,-4.42292 -3.41526,-7.45329 -0.14553,-4.13497 0.85578,-7.75942 2.7359,-10.02052 0.89775,-1.05614 1.87284,-1.98021 2.17738,-1.99606 0.30452,-0.0154 0.55983,-0.2237 0.55227,-0.46646 -0.008,-0.24264 0.5013,-0.65902 1.18556,-0.98994 0.6408,-0.32846 2.3482,-1.15987 3.79212,-1.88805 2.20812,-1.11947 3.06172,-1.3291 5.19609,-1.22066 1.39585,0.10719 2.93324,0.40511 3.42602,0.67299 v 0 m -25.97021,-9.33232 c -1.21973,0.43525 -2.78142,0.94151 -3.50179,1.14168 -2.28652,0.6577 -14.01912,5.40935 -15.88333,6.46035 -1.01762,0.55316 -2.63884,1.35672 -3.62538,1.7647 -5.70096,2.52235 -6.24536,3.29137 -4.88299,7.16705 0.58385,1.66098 2.4558,3.13877 4.03687,3.10261 0.30743,-0.008 2.78979,-1.11381 5.45544,-2.5368 7.01665,-3.65801 8.17741,-4.3002 14.18493,-6.72855 2.95978,-1.235 6.4044,-2.7302 7.71757,-3.34003 5.42068,-2.54558 6.61914,-4.61967 4.33271,-7.12597 -1.05321,-1.21256 -1.41314,-1.32146 -3.42614,-1.04865 -1.24297,0.15771 -3.23518,0.66518 -4.40789,1.14361 v 0 m -61.38112,-7.22274 c -10.6894,3.53714 -19.0388,9.84413 -24.24317,16.62666 -1.99688,2.65977 -2.27399,3.37727 -2.30565,6.17569 -0.0325,0.63418 -0.0745,1.5038 -0.14077,1.90747 -0.0283,0.43567 0.0406,0.76822 0.2586,0.7606 0.17462,-0.005 0.27517,0.15832 0.23685,0.36128 -0.198,1.04856 1.75133,4.3564 3.55564,6.27167 1.91602,1.98471 5.93757,4.7157 8.13824,5.42506 0.50241,0.12075 0.80257,0.42474 0.73441,0.60962 -0.0682,0.18487 0.19389,0.34013 0.55674,0.3485 0.36287,0.009 2.27563,0.65054 4.18438,1.47074 1.9088,0.82025 3.86662,1.55294 4.38839,1.64944 2.62302,0.44412 10.57018,4.74204 11.98495,6.61714 2.39928,3.09962 2.44019,4.04341 -0.3107,6.40746 -2.05112,1.77392 -2.90329,2.18077 -6.07309,3.02476 -6.74296,1.78214 -11.58418,1.34691 -18.15759,-1.19898 -2.83118,-1.09229 -5.97311,-4.22565 -6.09077,-6.01178 -0.0666,-0.46819 -0.16539,-1.5516 -0.31397,-2.39749 -0.1496,-0.84575 -0.29815,-2.05824 -0.35758,-2.6593 -0.18724,-1.42983 -0.50234,-1.65748 -2.26789,-1.54754 -2.18301,0.0925 -2.82545,0.53307 -3.76951,2.44006 -0.85443,1.83771 -1.87849,5.31595 -1.49976,5.64731 0.11795,0.12257 0.1989,0.81577 0.19532,1.54836 -0.11131,4.81335 6.51924,9.73611 16.6448,11.71544 5.86644,1.13961 11.80248,0.935 18.62869,-0.86234 2.89673,-0.77313 8.33294,-3.82028 10.51086,-5.9406 1.08895,-1.0601 2.98951,-5.36192 3.17704,-7.21793 0.26861,-2.24186 -1.94893,-6.37697 -4.31209,-8.17755 -0.49073,-0.3942 -0.79676,-0.94481 -0.7053,-1.27363 0.10295,-0.36992 -0.12677,-0.54268 -0.52634,-0.43147 -0.39958,0.11112 -1.35901,-0.25154 -2.11258,-0.84724 -0.76483,-0.55509 -1.55201,-1.02206 -1.77916,-1.028 -0.22711,-0.006 -1.80931,-0.73883 -3.51506,-1.65068 -1.71658,-0.87226 -4.69732,-2.05276 -6.64972,-2.65135 -3.39772,-1.07618 -6.48375,-2.2032 -7.71587,-2.94001 -0.30805,-0.18419 -1.34068,-0.66004 -2.25989,-1.05513 -0.91925,-0.3951 -2.11401,-1.10561 -2.65986,-1.59994 -0.54584,-0.49439 -1.59209,-1.32965 -2.28126,-1.8083 -0.68195,-0.51413 -1.21926,-1.12892 -1.1628,-1.44511 0.0502,-0.28106 -0.17307,-0.763 -0.47235,-1.06586 -0.71301,-0.70611 -0.78377,-3.42332 -0.0898,-4.04582 0.2781,-0.2559 0.33453,-0.4663 0.20463,-0.45921 -0.60615,0.0326 1.01582,-1.68572 3.74682,-4.44208 4.66532,-4.6491 13.47769,-10.09364 19.373,-11.24343 3.98758,-0.77325 5.78545,-0.64575 7.86048,0.6001 2.12412,1.27975 2.85778,2.45714 3.44748,6.8632 0.46711,3.85421 0.74021,5.00318 2.03206,5.9845 1.11921,0.90985 3.03795,0.49624 4.3697,-0.9389 0.77334,-0.82668 0.96793,-1.54369 0.86823,-4.26266 -0.13857,-3.45962 -0.89714,-5.52627 -3.39609,-8.94411 -1.43131,-1.89399 -5.38803,-4.72795 -6.50246,-4.73962 -0.31994,-0.0376 -1.99731,-0.17514 -3.77644,-0.32816 -4.71392,-0.46545 -6.44358,-0.30577 -9.6494,0.75915 h -2e-5 m 120.31463,-16.85782 c -2.72739,0.86652 -6.88999,4.00484 -7.72055,5.79112 -1.30326,2.7625 -1.95827,7.16527 -1.93109,12.89385 0.0469,7.4306 -0.0632,8.00432 -0.83919,8.06793 -1.12085,0.0922 -2.55196,1.75183 -2.90946,3.37334 -0.19846,0.83796 -0.13006,2.99056 0.11837,4.71924 0.71698,5.39381 1.89773,12.30763 2.27995,12.79728 0.33515,0.44127 0.84994,3.1849 1.56219,8.65004 0.29252,2.35034 2.0455,9.97589 2.67761,11.69285 1.35955,3.48016 4.64129,4.16871 7.00655,1.36403 l 1.39774,-1.60148 -0.95189,-9.14352 c -1.74777,-16.43344 -1.73938,-15.8098 -1.14465,-14.97696 3.05234,4.05445 9.48555,9.17205 14.59403,11.46454 2.04919,0.88529 4.71376,2.15655 5.93476,2.74688 1.2272,0.64145 2.58102,1.10655 3.03618,1.05343 0.45495,-0.0548 1.31456,0.15591 1.91711,0.49722 1.4608,0.8588 7.72409,0.61282 9.25112,-0.31872 1.26971,-0.79303 1.2596,-2.48668 0.0783,-3.81776 -0.38843,-0.41014 -3.25876,-1.67004 -6.29972,-2.89753 -9.06382,-3.58649 -13.23327,-6.17746 -18.69302,-11.228 -3.13795,-2.87693 -3.52244,-3.41892 -3.01117,-4.08644 0.46776,-0.66366 4.8332,-2.76748 7.92327,-3.83669 5.03445,-1.77107 11.57829,-5.15856 13.68965,-7.05871 3.18604,-2.8777 4.32342,-6.54305 3.62539,-11.11251 -0.36827,-2.25762 -0.78506,-3.13486 -2.56529,-5.4407 -5.9667,-7.7346 -20.08466,-12.51952 -29.02625,-9.59271 h -2e-5 m 15.40809,9.61988 c 2.88949,0.84478 7.24692,3.26199 8.58994,4.78944 1.23969,1.331 0.45174,2.72608 -2.96607,5.19719 -2.23548,1.64353 -4.60868,2.69008 -10.84417,4.80277 -4.37744,1.53184 -8.84304,3.1628 -9.88274,3.71799 -1.03969,0.55518 -2.04638,1.00239 -2.21913,1.0169 -0.69104,0.0569 -0.7802,-10.70637 -0.1229,-13.56296 1.1001,-4.70952 2.0956,-5.6859 6.74779,-6.65992 3.28981,-0.64835 7.0457,-0.44461 10.69728,0.69859 v 0 m 85.47876,-26.75003 c -0.31284,0.25371 -1.15885,1.57583 -1.87061,2.86283 -1.3789,2.57406 -2.5791,3.70784 -7.6901,12.67788 -3.1114,5.48844 -4.74493,8.60114 -7.39228,13.94673 -2.53563,5.15629 -6.28182,11.58363 -8.41282,13.822 -2.08784,2.23271 -5.76732,4.69676 -7.50387,4.93902 -0.91168,0.12719 -2.37681,-0.10156 -3.24642,-0.51364 -1.35177,-0.63578 -5.79815,-5.10564 -7.86095,-7.99647 -6.60467,-9.21128 -6.74269,-9.77013 -9.01241,-9.97446 -2.31677,-0.2498 -3.30633,1.12177 -3.41656,4.92203 -0.01,1.69639 -0.28355,3.62104 -0.60112,4.30337 -0.35523,0.73615 -0.45616,2.19948 -0.24978,3.93147 0.17736,1.48456 0.54997,6.20711 0.91871,10.48916 0.69267,8.26769 3.21188,18.74598 4.8922,21.31194 2.59749,3.98853 7.11116,2.95884 7.67291,-1.66044 0.15719,-1.33353 -0.51941,-4.381 -2.12373,-12.39811 -1.13725,-5.84868 -1.85298,-11.14809 -1.81856,-11.79505 0.0982,-1.0999 0.18457,-1.0553 1.69708,0.66992 5.38446,6.05106 9.4759,8.15778 14.08599,7.93596 4.25757,-0.16408 9.00337,-3.25336 12.68492,-7.89733 1.47467,-1.84865 5.95693,-9.18442 5.87055,-9.66533 -0.0244,-0.13101 1.22607,-3.43296 2.96383,-7.17205 1.7807,-3.74367 4.00576,-8.18896 4.87542,-9.87843 l 1.5809,-3.09219 0.62588,6.97264 c 0.457,3.8319 1.50893,8.3216 2.0813,10.00115 0.57236,1.67956 1.34279,3.79879 1.68455,4.69243 0.3417,0.89367 1.05706,2.50323 1.63194,3.61597 0.60715,1.06465 1.73764,3.20212 2.56602,4.74091 0.815,1.49794 2.94492,4.83127 4.86487,7.31997 1.87526,2.498 4.0876,5.1775 4.75542,5.99789 1.68108,2.22542 9.25624,9.67093 10.37776,10.41767 2.0698,1.40328 6.66663,5.17304 8.38429,6.86297 2.45129,2.45482 3.39304,2.84195 5.96365,2.63374 1.96592,-0.16795 2.34477,-0.33424 3.04789,-1.61431 0.44555,-0.78439 0.60696,-1.80139 0.38379,-2.33307 -0.72193,-1.44189 -5.0823,-4.63844 -11.1803,-9.45635 -4.68021,-3.68503 -12.77115,-11.39543 -19.1131,-20.95368 -2.1046,-3.1597 -6.48628,-13.12162 -7.43224,-16.87451 -1.49061,-6.26426 -0.77283,-22.06451 0.55182,-25.28101 0.7724,-1.96298 0.74467,-3.12119 -0.28248,-4.4715 -1.64726,-2.19413 -3.82309,-3.1419 -4.95399,-2.03979 v 0 m -64.14916,-51.40298 c -2.22201,1.08663 -2.84547,3.24352 -3.27358,12.21699 -0.55379,12.49158 1.32153,19.55395 4.73093,20.53506 3.59642,1.03001 5.67809,-1.41584 5.90469,-6.73659 0.19669,-3.71409 -0.43416,-5.28966 -2.16506,-5.31104 -0.79125,-0.01 -0.88626,-0.56141 -0.39576,-6.22292 0.27311,-3.38717 0.59859,-6.27286 0.61559,-6.42476 0.0226,-0.20246 0.32075,-1.46428 0.70417,-2.87619 0.53442,-2.22057 0.45842,-2.78235 -0.42885,-3.87711 -1.30761,-1.61594 -3.81492,-2.19156 -5.6919,-1.30345 l -4e-5,1e-5 m -24.81078,-4.57204 c -1.04376,0.20032 -2.12974,0.87387 -2.44403,1.45816 -0.31437,0.58437 -1.04103,1.91431 -1.65461,2.93091 -3.41701,5.92977 -10.33402,22.91891 -11.04969,26.20109 -0.90425,4.38891 -0.22802,10.03191 1.46826,12.73156 1.36628,2.15888 3.36557,3.43683 5.20088,3.28867 1.42247,-0.11338 2.77654,-2.54632 2.63376,-4.65826 -0.0805,-1.18471 0.11601,-1.76873 0.53693,-1.79911 0.37413,-0.0274 1.92354,-1.48329 3.49298,-3.23605 2.37776,-2.63068 6.71067,-6.14179 7.48323,-6.17534 0.57941,-0.0253 2.92632,8.50796 2.87871,10.46082 -0.0785,2.62154 0.90058,4.31831 2.89344,5.05002 1.20417,0.40791 1.56601,0.34082 2.51987,-0.51369 2.04345,-1.86755 2.438,-7.2198 0.80306,-11.77461 -0.28127,-0.65675 -0.93378,-2.83738 -1.54438,-4.86906 -0.93915,-3.14933 -0.98716,-3.81684 -0.42562,-4.9056 0.81832,-1.60701 0.41324,-3.13599 -1.03292,-3.7696 -1.14633,-0.53791 -1.92743,-2.61949 -2.72865,-7.5348 -1.27883,-7.42242 -4.34787,-13.68542 -6.55473,-13.39768 -0.33106,0.0639 -1.43404,0.26062 -2.4772,0.51262 v 0 m 1.49046,14.79823 c 0.22545,1.07311 0.50793,2.55614 0.62301,3.27293 0.11495,0.71679 0.39072,1.89023 0.70535,2.59787 0.26348,0.65843 0.3291,1.53157 0.13594,1.84955 -0.43179,0.84412 -8.71398,5.66047 -8.74691,5.09354 -0.0533,-0.92775 5.95292,-14.66169 6.41965,-14.68343 0.25932,-0.0112 0.63827,0.84796 0.86281,1.86956 h 4e-5 m -67.4301,-24.48178 c -5.86373,3.63841 -7.25905,5.90718 -6.9874,10.51018 0.328,4.58972 2.07449,13.8164 3.2794,17.37378 0.4066,1.3054 0.3191,1.37273 -1.47601,1.5226 -1.03553,0.0812 -1.84733,0.32033 -1.74178,0.60546 0.088,0.23766 -0.20333,0.51094 -0.61624,0.60663 -1.44513,0.33492 -0.14908,5.17255 2.13359,8.70364 0.88694,1.33643 1.59947,2.86572 1.62407,3.42087 0.0254,0.55513 0.55563,1.86623 1.12776,2.86389 0.63552,1.03508 2.0121,3.69463 3.12049,6.00561 1.09471,2.26306 2.40916,5.19429 3.03044,6.49129 0.56281,1.25736 1.30838,2.93635 1.59579,3.74092 0.27583,0.75633 0.84152,2.16639 1.19597,3.11082 0.43253,1.08186 1.33954,2.23487 2.4854,3.05515 1.53118,1.10988 1.9652,1.24641 3.29537,0.73745 0.85692,-0.33473 1.71291,-0.92118 1.91568,-1.30676 0.3348,-0.659 -0.0148,-3.24148 -0.98098,-6.69122 -0.14545,-0.68761 -0.50435,-2.35697 -0.75248,-3.68984 -0.21268,-1.38976 -1.08628,-4.809 -2.04483,-7.70351 -0.89909,-2.85411 -1.51953,-5.19851 -1.32628,-5.23487 0.33824,-0.0637 2.3855,1.02513 6.27916,3.59155 0.58785,0.41257 1.339,0.69661 1.7184,0.63294 0.33193,-0.0558 1.22459,0.20679 1.9438,0.60382 1.76397,0.94671 3.28836,1.2744 10.0732,2.64894 6.19853,1.30172 10.81038,1.5607 12.62156,0.57812 1.49834,-0.84353 1.72979,-2.52886 0.48757,-3.68636 -0.96855,-0.87695 -6.6769,-3.39976 -7.48711,-3.29446 -0.71481,0.0938 -6.28298,-1.88233 -6.72041,-2.38786 -0.24739,-0.27448 -0.44963,-0.29642 -0.39445,0.007 0.0459,0.25206 -0.20335,0.23679 -0.60586,-0.0655 -0.40251,-0.30251 -1.07791,-0.45972 -1.56071,-0.38614 -0.4828,0.0734 -0.90811,-0.0675 -0.96718,-0.36879 -0.0493,-0.25104 -0.23405,-0.4293 -0.41793,-0.34891 -0.54142,0.29135 -4.45014,-1.34989 -4.57074,-1.89824 -0.0548,-0.24924 0.79783,-0.75473 1.9323,-1.14691 2.21997,-0.77649 5.81927,-2.31765 8.28338,-3.60709 2.09476,-1.0805 2.48241,-1.23334 3.02163,-1.35901 0.249,-0.0336 0.56392,-0.2845 0.67185,-0.55873 0.11616,-0.22343 0.96535,-0.96132 1.83888,-1.59485 1.62046,-1.09469 4.97111,-4.77347 4.88715,-5.38705 -0.0233,-0.15311 0.34913,-0.87265 0.88653,-1.55801 2.61469,-3.57432 2.53999,-10.37015 -0.49095,-14.59797 -5.34561,-7.29002 -22.69444,-12.93883 -35.21405,-11.06299 -2.36768,0.3262 -4.67133,0.8761 -5.09393,1.12547 l -1e-5,-6e-5 m 18.6494,7.20889 c 7.84868,1.52056 14.75919,5.08966 16.05968,7.67717 1.46611,2.93004 -3.53483,9.12292 -9.34749,12.05451 -3.17333,1.5853 -4.71678,2.20521 -7.76092,2.99637 -1.49074,0.41596 -2.86272,0.87268 -3.02821,1.05821 -0.64874,0.58432 -6.31747,2.01943 -7.66566,1.97777 l -1.34981,-0.0391 -1.38802,-5.30266 c -1.61323,-6.09098 -2.44749,-12.43337 -1.81469,-15.70638 0.8459,-4.4167 7.34386,-6.41203 16.29513,-4.71578 v 0 M 427.95229,165.5316 c -3.16403,1.40451 -4.94439,4.14972 -6.83541,10.57287 -3.18012,11.02044 -4.96058,15.13968 -9.0585,23.05969 -2.08052,4.07511 -4.44744,8.71849 -5.41191,10.42935 -2.5429,4.33321 -6.60309,9.8332 -8.53664,11.19559 -1.54111,1.07208 -1.83194,1.09983 -4.33271,0.69809 -6.52498,-1.00018 -10.92519,-5.18813 -20.90516,-20.32994 -6.18288,-9.31754 -7.70639,-11.02524 -11.14824,-13.65041 -3.24329,-2.50972 -5.81993,-2.98525 -7.93712,-1.48297 -0.72778,0.51644 -1.35513,1.14241 -1.41346,1.44393 -0.0487,0.25122 -0.98594,0.75825 -2.10604,1.10874 -1.53329,0.48228 -2.17602,1.01449 -2.71433,2.31202 -0.90258,2.19616 -1.54108,7.75185 -1.38412,11.34182 0.10099,1.61905 0.14121,4.19017 0.0666,5.69764 -0.1047,4.37469 1.15927,14.4457 1.9915,16.49201 0.639,1.49758 1.04009,1.79583 2.4863,1.95996 2.19492,0.22177 3.88898,-0.83233 4.47054,-2.68923 0.2273,-0.78222 0.49202,-3.53131 0.57599,-6.04807 0.39891,-13.17722 1.11349,-17.31294 2.03094,-19.26645 l 0.82541,-1.70761 2.28351,2.94471 c 1.25769,1.6268 4.34167,5.95202 6.78881,9.58634 10.2497,15.25261 15.94685,19.65824 24.68267,20.08635 7.18588,0.35217 9.95306,-1.66496 15.67696,-9.61929 1.51379,-2.07142 3.80833,-5.46957 5.16376,-7.56353 3.0268,-4.74785 9.93969,-16.72428 11.82819,-21.04554 1.74334,-4.00373 5.80117,-13.73472 7.58199,-18.32452 0.67853,-1.92262 1.66834,-3.76099 2.1129,-4.04755 0.44447,-0.2866 0.43988,-1.21142 -0.0442,-2.01195 -1.04573,-1.97436 -3.77401,-2.4752 -6.73855,-1.14202 l -7e-5,-2e-5 M 127.912,185.91425 c -20.7267,10.25846 -28.41857,23.69532 -20.40623,31.45154 2.84448,2.77595 10.49554,7.46575 17.05451,11.02325 6.2251,3.38387 10.28927,5.835 12.34371,6.91951 1.06771,0.57501 6.2649,3.35981 12.20035,7.22901 1.62028,1.10207 4.04831,2.6196 5.4353,3.35307 3.51291,1.94936 8.59426,5.64807 8.31516,5.71741 -0.13962,0.0345 0.11264,0.22164 0.5741,0.3989 0.46143,0.17724 1.22402,0.69694 1.68998,1.1228 1.33063,1.33527 3.41914,2.89733 6.12228,4.95205 1.43004,1.03042 2.98769,2.3258 3.58346,2.8911 0.53187,0.5381 1.3154,1.30881 1.73688,1.66866 0.3771,0.36877 0.81921,0.88664 1.04662,1.16456 3.73072,4.95258 4.79906,6.08781 7.83233,6.35146 2.35887,0.17386 2.77962,-2.75144 0.55899,-5.87971 -1.03506,-1.49577 -5.86626,-8.41227 -7.09763,-10.20686 -0.62641,-0.91602 -1.7036,-2.36746 -2.37811,-3.27652 -5.02172,-6.41961 -11.22583,-14.90659 -24.66964,-27.68364 -4.92856,-4.64652 -5.123,-4.67492 -7.54838,-5.00272 -3.02769,-0.37404 -5.63105,0.50637 -5.94697,1.93647 -0.23399,1.05941 1.7884,1.1757 15.73277,14.86031 7.80667,7.64031 12.276,14.13709 12.08875,14.18468 -0.23413,0.0595 -0.38764,-0.0713 -0.38115,-0.2857 0.0533,-0.22633 -0.20247,-0.41671 -0.44474,-0.43977 -1.10996,-0.056 -16.7088,-10.94715 -23.70783,-15.42537 -1.91081,-1.19569 -4.84308,-2.96041 -6.58061,-3.94977 -7.84036,-4.46862 -15.38572,-10.04099 -17.14942,-13.81977 -3.04395,-6.61503 2.94969,-15.13812 17.66114,-23.30525 12.51039,-6.94141 39.34058,-13.57953 55.62575,-13.20658 5.66231,0.1585 13.86896,2.62347 18.08828,5.43754 4.27911,2.79681 7.70285,6.74783 7.76341,8.56656 0.0336,0.67243 0.23698,1.29698 0.47814,1.38766 0.64317,0.24186 0.64011,4.52491 -0.0133,6.62335 -0.31492,1.07196 -0.53907,2.06438 -0.46868,2.20031 0.12425,0.12115 -0.17167,0.97771 -0.54598,1.90497 -0.57487,1.60084 -0.96635,2.27719 -2.50682,5.04986 -1.99792,3.61344 -9.72774,11.65911 -13.58228,14.20414 -3.62904,2.33494 -10.7936,5.44411 -14.68355,6.40527 -3.29645,0.79281 -3.88582,1.06087 -4.31895,2.02977 -0.78097,1.72559 2.19657,4.64706 5.15669,5.2418 2.91215,0.60753 9.25704,-0.0985 18.25005,-1.884 7.88015,-1.55339 13.9635,-2.21697 16.77146,-1.89041 3.33287,0.35147 6.44535,1.68105 7.71851,3.22408 0.916,1.07973 1.01919,1.5537 0.72437,3.51843 -0.19557,1.21197 -0.59133,2.26344 -0.81933,2.30982 -0.27359,0.0557 -0.26081,0.24703 -0.0379,0.49284 0.20863,0.20024 0.0981,0.46489 -0.26579,0.53828 -0.40922,0.0827 -0.65533,0.37408 -0.58372,0.60127 0.18615,0.59065 -3.23065,4.09973 -5.1155,5.22665 -2.80482,1.68597 -7.16588,2.85613 -9.3754,2.56121 -3.22471,-0.46035 -4.22566,-0.38042 -4.00717,0.21428 0.10948,0.29738 -0.0347,0.82858 -0.32987,1.20633 -1.13724,1.36584 2.53863,5.11963 5.3856,5.65529 4.04975,0.684 11.88991,-1.68578 16.02379,-5.03263 3.21265,-2.61322 3.47564,-2.9036 4.74463,-5.90664 1.6017,-3.69587 1.90363,-4.89449 1.78597,-7.98194 -0.12532,-3.28334 -1.13824,-5.5775 -3.87867,-8.47094 -1.7697,-1.80859 -4.96285,-3.72593 -5.77654,-3.53824 -0.23932,0.0555 -0.77472,-0.11938 -1.10827,-0.43965 -1.3291,-1.1331 -10.67138,-1.77557 -13.93565,-0.93878 -2.24118,0.57454 -2.10006,-0.0892 0.6087,-2.72417 1.67318,-1.57357 3.65097,-3.63503 4.3544,-4.51952 2.51204,-3.10847 6.38746,-9.40234 6.95023,-11.49811 0.31265,-1.10732 0.79855,-2.10799 1.00896,-2.16187 0.26296,-0.0674 0.39051,-0.30595 0.28641,-0.53714 -0.10398,-0.23121 -0.0755,-2.24945 0.0879,-4.52152 0.36246,-5.12379 0.2473,-5.98447 -2.64619,-11.73434 -1.74976,-3.42529 -3.03801,-5.14314 -5.02769,-6.82358 -13.49213,-11.45865 -28.70408,-13.59974 -61.85831,-6.40844 -6.3388,1.38068 -23.8727,7.3417 -28.59346,9.66926 l -1e-5,-3e-5"
     style="fill:#e5d62b;fill-opacity:1;stroke:#674848;stroke-width:2.88151813;stroke-miterlimit:4;stroke-dasharray:none;stroke-opacity:1"
     id="path4793"
     inkscape:connector-curvature="0" /></g></svg>